<?xml version="1.0" encoding="UTF-8" standalone="no"?><svg xmlns="http://www.w3.org/2000/svg" xmlns:xlink="http://www.w3.org/1999/xlink" contentScriptType="application/ecmascript" contentStyleType="text/css" height="865px" preserveAspectRatio="none" style="width:1188px;height:865px;" version="1.1" viewBox="0 0 1188 865" width="1188px" zoomAndPan="magnify"><defs><filter height="300%" id="f1frte7hr9h0is" width="300%" x="-1" y="-1"><feGaussianBlur result="blurOut" stdDeviation="2.0"/><feColorMatrix in="blurOut" result="blurOut2" type="matrix" values="0 0 0 0 0 0 0 0 0 0 0 0 0 0 0 0 0 0 .4 0"/><feOffset dx="4.0" dy="4.0" in="blurOut2" result="blurOut3"/><feBlend in="SourceGraphic" in2="blurOut3" mode="normal"/></filter></defs><g><text fill="#000000" font-family="sans-serif" font-size="18" lengthAdjust="spacingAndGlyphs" textLength="155" x="520.5" y="16.708">Meshless - sympy</text><!--class BoundaryCondition--><rect fill="#FEFECE" filter="url(#f1frte7hr9h0is)" height="73.6094" id="BoundaryCondition" style="stroke: #A80036; stroke-width: 1.5;" width="150" x="189" y="28.9531"/><ellipse cx="204" cy="44.9531" fill="#EB937F" rx="11" ry="11" style="stroke: #A80036; stroke-width: 1.0;"/><path d="M202.2969,45.8281 L202.2969,48.25 L206.6563,48.25 L206.6563,47.375 C206.6563,46.8906 206.6875,46.75 206.7969,46.5938 C206.9688,46.3438 207.2344,46.2344 207.5,46.2344 C207.7813,46.2344 208.0625,46.3906 208.2344,46.6406 C208.3125,46.7969 208.3438,46.9375 208.3438,47.375 L208.3438,49.9531 L200.3438,49.9531 C199.9531,49.9531 199.7188,49.9063 199.5781,49.7813 C199.3594,49.625 199.2188,49.375 199.2188,49.1094 C199.2188,48.8125 199.375,48.5469 199.625,48.375 C199.7813,48.2656 199.9375,48.25 200.3438,48.25 L200.5938,48.25 L200.5938,41.7344 L200.3438,41.7344 C199.9219,41.7344 199.7344,41.7031 199.5781,41.5938 C199.3594,41.4219 199.2188,41.1719 199.2188,40.8906 C199.2188,40.6094 199.375,40.3125 199.625,40.1563 C199.7813,40.0625 199.9063,40.0469 200.3438,40.0469 L207.9688,40.0469 L207.9688,42.5938 C207.9688,43.0625 207.9375,43.2031 207.8281,43.375 C207.6563,43.5938 207.3906,43.7344 207.125,43.7344 C206.8438,43.7344 206.5625,43.5781 206.3906,43.3281 C206.3125,43.1719 206.2813,43 206.2813,42.5938 L206.2813,41.7344 L202.2969,41.7344 L202.2969,44.1406 L203.75,44.1406 L203.75,44.0156 C203.75,43.5625 203.7813,43.4063 203.8906,43.2344 C204.0625,43.0156 204.3281,42.875 204.5781,42.875 C205.0313,42.875 205.3438,43.1875 205.4063,43.6563 C205.4219,43.8125 205.4219,43.8594 205.4219,44.0156 L205.4219,45.9375 C205.4219,46.3906 205.3906,46.5469 205.2656,46.7031 C205.1094,46.9219 204.8438,47.0625 204.5938,47.0625 C204.2969,47.0625 204.0156,46.9063 203.8594,46.6563 C203.7813,46.5 203.75,46.3438 203.75,45.9375 L203.75,45.8281 Z "/><text fill="#000000" font-family="sans-serif" font-size="12" lengthAdjust="spacingAndGlyphs" textLength="118" x="218" y="49.1074">BoundaryCondition</text><line style="stroke: #A80036; stroke-width: 1.5;" x1="190" x2="338" y1="60.9531" y2="60.9531"/><text fill="#000000" font-family="sans-serif" font-size="11" lengthAdjust="spacingAndGlyphs" textLength="61" x="195" y="75.1636">DIRICHLET,</text><text fill="#000000" font-family="sans-serif" font-size="11" lengthAdjust="spacingAndGlyphs" textLength="55" x="195" y="87.9683">NEUMANN</text><line style="stroke: #A80036; stroke-width: 1.5;" x1="190" x2="338" y1="94.5625" y2="94.5625"/><!--class PolygonRegion--><rect fill="#FEFECE" filter="url(#f1frte7hr9h0is)" height="163.2422" id="PolygonRegion" style="stroke: #A80036; stroke-width: 1.5;" width="412" x="281" y="583.9531"/><ellipse cx="436.75" cy="599.9531" fill="#ADD1B2" rx="11" ry="11" style="stroke: #A80036; stroke-width: 1.0;"/><path d="M439.0938,595.625 L439.2656,595.7031 C439.4844,595.3906 439.6875,595.2969 439.9844,595.2969 C440.2813,595.2969 440.5625,595.4375 440.7188,595.7031 C440.8125,595.8594 440.8281,595.9844 440.8281,596.4219 L440.8281,597.8438 C440.8281,598.2656 440.7969,598.4531 440.6875,598.6094 C440.5156,598.8281 440.25,598.9688 439.9844,598.9688 C439.7656,598.9688 439.5313,598.8594 439.3906,598.7188 C439.25,598.5938 439.2188,598.4688 439.1563,598.0625 C439.0625,597.6563 438.8906,597.4375 438.4063,597.1563 C437.9375,596.9063 437.3281,596.75 436.75,596.75 C435.0156,596.75 433.7656,598.0625 433.7656,599.8438 L433.7656,600.9375 C433.7656,602.6406 435.0625,603.7344 437.1094,603.7344 C437.875,603.7344 438.5625,603.6094 438.9844,603.3438 C439.1719,603.25 439.1719,603.25 439.625,602.7656 C439.8125,602.5781 440.0156,602.5 440.2344,602.5 C440.7031,602.5 441.0938,602.8906 441.0938,603.3438 C441.0938,603.7344 440.7656,604.1875 440.1875,604.5938 C439.4375,605.1406 438.2813,605.4375 437.0625,605.4375 C434.1719,605.4375 432.0625,603.5469 432.0625,600.9688 L432.0625,599.8438 C432.0625,597.125 434.0625,595.0469 436.6875,595.0469 C437.5625,595.0469 438.1563,595.1875 439.0938,595.625 Z "/><text fill="#000000" font-family="sans-serif" font-size="12" lengthAdjust="spacingAndGlyphs" textLength="92" x="457.25" y="604.1074">PolygonRegion</text><line style="stroke: #A80036; stroke-width: 1.5;" x1="282" x2="692" y1="615.9531" y2="615.9531"/><ellipse cx="292" cy="627.8555" fill="none" rx="3" ry="3" style="stroke: #038048; stroke-width: 1.0;"/><text fill="#000000" font-family="sans-serif" font-size="11" lengthAdjust="spacingAndGlyphs" textLength="147" x="301" y="630.1636">all_points: ndarray&lt;N, 2&gt;</text><ellipse cx="292" cy="640.6602" fill="none" rx="3" ry="3" style="stroke: #038048; stroke-width: 1.0;"/><text fill="#000000" font-family="sans-serif" font-size="11" lengthAdjust="spacingAndGlyphs" textLength="187" x="301" y="642.9683">boundary_points: ndarray&lt;N, 2&gt;</text><ellipse cx="292" cy="653.4648" fill="none" rx="3" ry="3" style="stroke: #038048; stroke-width: 1.0;"/><text fill="#000000" font-family="sans-serif" font-size="11" lengthAdjust="spacingAndGlyphs" textLength="176" x="301" y="655.7729">domain_points: ndarray&lt;N, 2&gt;</text><line style="stroke: #A80036; stroke-width: 1.5;" x1="282" x2="692" y1="662.3672" y2="662.3672"/><ellipse cx="292" cy="674.2695" fill="#84BE84" rx="3" ry="3" style="stroke: #038048; stroke-width: 1.0;"/><text fill="#000000" font-family="sans-serif" font-size="11" lengthAdjust="spacingAndGlyphs" textLength="386" x="301" y="676.5776">boundary_condition(point: ndarray&lt;2&gt;): array&lt;BoundaryCondition&gt;</text><ellipse cx="292" cy="687.0742" fill="#84BE84" rx="3" ry="3" style="stroke: #038048; stroke-width: 1.0;"/><text fill="#000000" font-family="sans-serif" font-size="11" lengthAdjust="spacingAndGlyphs" textLength="286" x="301" y="689.3823">distance_from_boundary(point: ndarray&lt;2&gt;): float</text><ellipse cx="292" cy="699.8789" fill="#84BE84" rx="3" ry="3" style="stroke: #038048; stroke-width: 1.0;"/><text fill="#000000" font-family="sans-serif" font-size="11" lengthAdjust="spacingAndGlyphs" textLength="230" x="301" y="702.187">normal(point: ndarray&lt;2&gt;): ndarray&lt;2&gt;</text><ellipse cx="292" cy="712.6836" fill="#84BE84" rx="3" ry="3" style="stroke: #038048; stroke-width: 1.0;"/><text fill="#000000" font-family="sans-serif" font-size="11" lengthAdjust="spacingAndGlyphs" textLength="185" x="301" y="714.9917">include(point: ndarray&lt;2&gt;): bool</text><polygon fill="#FFFF44" points="292,720.4883,296,724.4883,292,728.4883,288,724.4883" style="stroke: #B38D22; stroke-width: 1.0;"/><text fill="#000000" font-family="sans-serif" font-size="11" lengthAdjust="spacingAndGlyphs" textLength="81" x="301" y="727.7964">load(path: str)</text><ellipse cx="292" cy="738.293" fill="#84BE84" rx="3" ry="3" style="stroke: #038048; stroke-width: 1.0;"/><text fill="#000000" font-family="sans-serif" font-size="11" lengthAdjust="spacingAndGlyphs" textLength="29" x="301" y="740.6011">plot()</text><!--class RectangularRegion--><rect fill="#FEFECE" filter="url(#f1frte7hr9h0is)" height="48" id="RectangularRegion" style="stroke: #A80036; stroke-width: 1.5;" width="151" x="325.5" y="806.9531"/><ellipse cx="340.5" cy="822.9531" fill="#ADD1B2" rx="11" ry="11" style="stroke: #A80036; stroke-width: 1.0;"/><path d="M342.8438,818.625 L343.0156,818.7031 C343.2344,818.3906 343.4375,818.2969 343.7344,818.2969 C344.0313,818.2969 344.3125,818.4375 344.4688,818.7031 C344.5625,818.8594 344.5781,818.9844 344.5781,819.4219 L344.5781,820.8438 C344.5781,821.2656 344.5469,821.4531 344.4375,821.6094 C344.2656,821.8281 344,821.9688 343.7344,821.9688 C343.5156,821.9688 343.2813,821.8594 343.1406,821.7188 C343,821.5938 342.9688,821.4688 342.9063,821.0625 C342.8125,820.6563 342.6406,820.4375 342.1563,820.1563 C341.6875,819.9063 341.0781,819.75 340.5,819.75 C338.7656,819.75 337.5156,821.0625 337.5156,822.8438 L337.5156,823.9375 C337.5156,825.6406 338.8125,826.7344 340.8594,826.7344 C341.625,826.7344 342.3125,826.6094 342.7344,826.3438 C342.9219,826.25 342.9219,826.25 343.375,825.7656 C343.5625,825.5781 343.7656,825.5 343.9844,825.5 C344.4531,825.5 344.8438,825.8906 344.8438,826.3438 C344.8438,826.7344 344.5156,827.1875 343.9375,827.5938 C343.1875,828.1406 342.0313,828.4375 340.8125,828.4375 C337.9219,828.4375 335.8125,826.5469 335.8125,823.9688 L335.8125,822.8438 C335.8125,820.125 337.8125,818.0469 340.4375,818.0469 C341.3125,818.0469 341.9063,818.1875 342.8438,818.625 Z "/><text fill="#000000" font-family="sans-serif" font-size="12" lengthAdjust="spacingAndGlyphs" textLength="119" x="354.5" y="827.1074">RectangularRegion</text><line style="stroke: #A80036; stroke-width: 1.5;" x1="326.5" x2="475.5" y1="838.9531" y2="838.9531"/><line style="stroke: #A80036; stroke-width: 1.5;" x1="326.5" x2="475.5" y1="846.9531" y2="846.9531"/><!--class CircularRegion--><rect fill="#FEFECE" filter="url(#f1frte7hr9h0is)" height="48" id="CircularRegion" style="stroke: #A80036; stroke-width: 1.5;" width="122" x="512" y="806.9531"/><ellipse cx="527" cy="822.9531" fill="#ADD1B2" rx="11" ry="11" style="stroke: #A80036; stroke-width: 1.0;"/><path d="M529.3438,818.625 L529.5156,818.7031 C529.7344,818.3906 529.9375,818.2969 530.2344,818.2969 C530.5313,818.2969 530.8125,818.4375 530.9688,818.7031 C531.0625,818.8594 531.0781,818.9844 531.0781,819.4219 L531.0781,820.8438 C531.0781,821.2656 531.0469,821.4531 530.9375,821.6094 C530.7656,821.8281 530.5,821.9688 530.2344,821.9688 C530.0156,821.9688 529.7813,821.8594 529.6406,821.7188 C529.5,821.5938 529.4688,821.4688 529.4063,821.0625 C529.3125,820.6563 529.1406,820.4375 528.6563,820.1563 C528.1875,819.9063 527.5781,819.75 527,819.75 C525.2656,819.75 524.0156,821.0625 524.0156,822.8438 L524.0156,823.9375 C524.0156,825.6406 525.3125,826.7344 527.3594,826.7344 C528.125,826.7344 528.8125,826.6094 529.2344,826.3438 C529.4219,826.25 529.4219,826.25 529.875,825.7656 C530.0625,825.5781 530.2656,825.5 530.4844,825.5 C530.9531,825.5 531.3438,825.8906 531.3438,826.3438 C531.3438,826.7344 531.0156,827.1875 530.4375,827.5938 C529.6875,828.1406 528.5313,828.4375 527.3125,828.4375 C524.4219,828.4375 522.3125,826.5469 522.3125,823.9688 L522.3125,822.8438 C522.3125,820.125 524.3125,818.0469 526.9375,818.0469 C527.8125,818.0469 528.4063,818.1875 529.3438,818.625 Z "/><text fill="#000000" font-family="sans-serif" font-size="12" lengthAdjust="spacingAndGlyphs" textLength="90" x="541" y="827.1074">CircularRegion</text><line style="stroke: #A80036; stroke-width: 1.5;" x1="513" x2="633" y1="838.9531" y2="838.9531"/><line style="stroke: #A80036; stroke-width: 1.5;" x1="513" x2="633" y1="846.9531" y2="846.9531"/><!--class TestMeshless--><rect fill="#FEFECE" filter="url(#f1frte7hr9h0is)" height="48" id="TestMeshless" style="stroke: #A80036; stroke-width: 1.5;" width="117" x="374.5" y="41.9531"/><ellipse cx="389.5" cy="57.9531" fill="#ADD1B2" rx="11" ry="11" style="stroke: #A80036; stroke-width: 1.0;"/><path d="M391.8438,53.625 L392.0156,53.7031 C392.2344,53.3906 392.4375,53.2969 392.7344,53.2969 C393.0313,53.2969 393.3125,53.4375 393.4688,53.7031 C393.5625,53.8594 393.5781,53.9844 393.5781,54.4219 L393.5781,55.8438 C393.5781,56.2656 393.5469,56.4531 393.4375,56.6094 C393.2656,56.8281 393,56.9688 392.7344,56.9688 C392.5156,56.9688 392.2813,56.8594 392.1406,56.7188 C392,56.5938 391.9688,56.4688 391.9063,56.0625 C391.8125,55.6563 391.6406,55.4375 391.1563,55.1563 C390.6875,54.9063 390.0781,54.75 389.5,54.75 C387.7656,54.75 386.5156,56.0625 386.5156,57.8438 L386.5156,58.9375 C386.5156,60.6406 387.8125,61.7344 389.8594,61.7344 C390.625,61.7344 391.3125,61.6094 391.7344,61.3438 C391.9219,61.25 391.9219,61.25 392.375,60.7656 C392.5625,60.5781 392.7656,60.5 392.9844,60.5 C393.4531,60.5 393.8438,60.8906 393.8438,61.3438 C393.8438,61.7344 393.5156,62.1875 392.9375,62.5938 C392.1875,63.1406 391.0313,63.4375 389.8125,63.4375 C386.9219,63.4375 384.8125,61.5469 384.8125,58.9688 L384.8125,57.8438 C384.8125,55.125 386.8125,53.0469 389.4375,53.0469 C390.3125,53.0469 390.9063,53.1875 391.8438,53.625 Z "/><text fill="#000000" font-family="sans-serif" font-size="12" lengthAdjust="spacingAndGlyphs" textLength="85" x="403.5" y="62.1074">TestMeshless</text><line style="stroke: #A80036; stroke-width: 1.5;" x1="375.5" x2="490.5" y1="73.9531" y2="73.9531"/><line style="stroke: #A80036; stroke-width: 1.5;" x1="375.5" x2="490.5" y1="81.9531" y2="81.9531"/><!--class MeshlessMethod--><rect fill="#FEFECE" filter="url(#f1frte7hr9h0is)" height="124.8281" id="MeshlessMethod" style="stroke: #A80036; stroke-width: 1.5;" width="506" x="180" y="162.9531"/><ellipse cx="376.25" cy="178.9531" fill="#ADD1B2" rx="11" ry="11" style="stroke: #A80036; stroke-width: 1.0;"/><path d="M378.5938,174.625 L378.7656,174.7031 C378.9844,174.3906 379.1875,174.2969 379.4844,174.2969 C379.7813,174.2969 380.0625,174.4375 380.2188,174.7031 C380.3125,174.8594 380.3281,174.9844 380.3281,175.4219 L380.3281,176.8438 C380.3281,177.2656 380.2969,177.4531 380.1875,177.6094 C380.0156,177.8281 379.75,177.9688 379.4844,177.9688 C379.2656,177.9688 379.0313,177.8594 378.8906,177.7188 C378.75,177.5938 378.7188,177.4688 378.6563,177.0625 C378.5625,176.6563 378.3906,176.4375 377.9063,176.1563 C377.4375,175.9063 376.8281,175.75 376.25,175.75 C374.5156,175.75 373.2656,177.0625 373.2656,178.8438 L373.2656,179.9375 C373.2656,181.6406 374.5625,182.7344 376.6094,182.7344 C377.375,182.7344 378.0625,182.6094 378.4844,182.3438 C378.6719,182.25 378.6719,182.25 379.125,181.7656 C379.3125,181.5781 379.5156,181.5 379.7344,181.5 C380.2031,181.5 380.5938,181.8906 380.5938,182.3438 C380.5938,182.7344 380.2656,183.1875 379.6875,183.5938 C378.9375,184.1406 377.7813,184.4375 376.5625,184.4375 C373.6719,184.4375 371.5625,182.5469 371.5625,179.9688 L371.5625,178.8438 C371.5625,176.125 373.5625,174.0469 376.1875,174.0469 C377.0625,174.0469 377.6563,174.1875 378.5938,174.625 Z "/><text fill="#000000" font-family="sans-serif" font-size="12" lengthAdjust="spacingAndGlyphs" textLength="105" x="396.75" y="183.1074">MeshlessMethod</text><line style="stroke: #A80036; stroke-width: 1.5;" x1="181" x2="685" y1="194.9531" y2="194.9531"/><ellipse cx="191" cy="206.8555" fill="none" rx="3" ry="3" style="stroke: #038048; stroke-width: 1.0;"/><text fill="#000000" font-family="sans-serif" font-size="11" lengthAdjust="spacingAndGlyphs" textLength="201" x="200" y="209.1636">stiffness_matrix: ndarray&lt;T, N, N&gt;</text><ellipse cx="191" cy="219.6602" fill="none" rx="3" ry="3" style="stroke: #038048; stroke-width: 1.0;"/><text fill="#000000" font-family="sans-serif" font-size="11" lengthAdjust="spacingAndGlyphs" textLength="219" x="200" y="221.9683">independent_vector: ndarray&lt;T, N, 1&gt;</text><line style="stroke: #A80036; stroke-width: 1.5;" x1="181" x2="685" y1="228.5625" y2="228.5625"/><rect fill="#F24D5C" height="6" style="stroke: #C82930; stroke-width: 1.0;" width="6" x="188" y="237.4648"/><text fill="#000000" font-family="sans-serif" font-size="11" lengthAdjust="spacingAndGlyphs" textLength="480" x="200" y="242.7729">domain_append(index: int, point: ndarray&lt;2&gt;): ndarray&lt;D, N, T&gt;, ndarray&lt;D, 1, T&gt;</text><rect fill="#F24D5C" height="6" style="stroke: #C82930; stroke-width: 1.0;" width="6" x="188" y="250.2695"/><text fill="#000000" font-family="sans-serif" font-size="11" lengthAdjust="spacingAndGlyphs" textLength="109" x="200" y="255.5776">boundary_append()</text><ellipse cx="191" cy="266.0742" fill="#84BE84" rx="3" ry="3" style="stroke: #038048; stroke-width: 1.0;"/><text fill="#000000" font-family="sans-serif" font-size="11" lengthAdjust="spacingAndGlyphs" textLength="38" x="200" y="268.3823">solve()</text><ellipse cx="191" cy="278.8789" fill="#84BE84" rx="3" ry="3" style="stroke: #038048; stroke-width: 1.0;"/><text fill="#000000" font-family="sans-serif" font-size="11" lengthAdjust="spacingAndGlyphs" textLength="29" x="200" y="281.187">plot()</text><!--class CollocationMethod--><rect fill="#FEFECE" filter="url(#f1frte7hr9h0is)" height="48" id="CollocationMethod" style="stroke: #A80036; stroke-width: 1.5;" width="148" x="6" y="411.9531"/><ellipse cx="21" cy="427.9531" fill="#ADD1B2" rx="11" ry="11" style="stroke: #A80036; stroke-width: 1.0;"/><path d="M23.3438,423.625 L23.5156,423.7031 C23.7344,423.3906 23.9375,423.2969 24.2344,423.2969 C24.5313,423.2969 24.8125,423.4375 24.9688,423.7031 C25.0625,423.8594 25.0781,423.9844 25.0781,424.4219 L25.0781,425.8438 C25.0781,426.2656 25.0469,426.4531 24.9375,426.6094 C24.7656,426.8281 24.5,426.9688 24.2344,426.9688 C24.0156,426.9688 23.7813,426.8594 23.6406,426.7188 C23.5,426.5938 23.4688,426.4688 23.4063,426.0625 C23.3125,425.6563 23.1406,425.4375 22.6563,425.1563 C22.1875,424.9063 21.5781,424.75 21,424.75 C19.2656,424.75 18.0156,426.0625 18.0156,427.8438 L18.0156,428.9375 C18.0156,430.6406 19.3125,431.7344 21.3594,431.7344 C22.125,431.7344 22.8125,431.6094 23.2344,431.3438 C23.4219,431.25 23.4219,431.25 23.875,430.7656 C24.0625,430.5781 24.2656,430.5 24.4844,430.5 C24.9531,430.5 25.3438,430.8906 25.3438,431.3438 C25.3438,431.7344 25.0156,432.1875 24.4375,432.5938 C23.6875,433.1406 22.5313,433.4375 21.3125,433.4375 C18.4219,433.4375 16.3125,431.5469 16.3125,428.9688 L16.3125,427.8438 C16.3125,425.125 18.3125,423.0469 20.9375,423.0469 C21.8125,423.0469 22.4063,423.1875 23.3438,423.625 Z "/><text fill="#000000" font-family="sans-serif" font-size="12" lengthAdjust="spacingAndGlyphs" textLength="116" x="35" y="432.1074">CollocationMethod</text><line style="stroke: #A80036; stroke-width: 1.5;" x1="7" x2="153" y1="443.9531" y2="443.9531"/><line style="stroke: #A80036; stroke-width: 1.5;" x1="7" x2="153" y1="451.9531" y2="451.9531"/><!--class SubregionMethod--><rect fill="#FEFECE" filter="url(#f1frte7hr9h0is)" height="48" id="SubregionMethod" style="stroke: #A80036; stroke-width: 1.5;" width="143" x="189.5" y="411.9531"/><ellipse cx="204.5" cy="427.9531" fill="#ADD1B2" rx="11" ry="11" style="stroke: #A80036; stroke-width: 1.0;"/><path d="M206.8438,423.625 L207.0156,423.7031 C207.2344,423.3906 207.4375,423.2969 207.7344,423.2969 C208.0313,423.2969 208.3125,423.4375 208.4688,423.7031 C208.5625,423.8594 208.5781,423.9844 208.5781,424.4219 L208.5781,425.8438 C208.5781,426.2656 208.5469,426.4531 208.4375,426.6094 C208.2656,426.8281 208,426.9688 207.7344,426.9688 C207.5156,426.9688 207.2813,426.8594 207.1406,426.7188 C207,426.5938 206.9688,426.4688 206.9063,426.0625 C206.8125,425.6563 206.6406,425.4375 206.1563,425.1563 C205.6875,424.9063 205.0781,424.75 204.5,424.75 C202.7656,424.75 201.5156,426.0625 201.5156,427.8438 L201.5156,428.9375 C201.5156,430.6406 202.8125,431.7344 204.8594,431.7344 C205.625,431.7344 206.3125,431.6094 206.7344,431.3438 C206.9219,431.25 206.9219,431.25 207.375,430.7656 C207.5625,430.5781 207.7656,430.5 207.9844,430.5 C208.4531,430.5 208.8438,430.8906 208.8438,431.3438 C208.8438,431.7344 208.5156,432.1875 207.9375,432.5938 C207.1875,433.1406 206.0313,433.4375 204.8125,433.4375 C201.9219,433.4375 199.8125,431.5469 199.8125,428.9688 L199.8125,427.8438 C199.8125,425.125 201.8125,423.0469 204.4375,423.0469 C205.3125,423.0469 205.9063,423.1875 206.8438,423.625 Z "/><text fill="#000000" font-family="sans-serif" font-size="12" lengthAdjust="spacingAndGlyphs" textLength="111" x="218.5" y="432.1074">SubregionMethod</text><line style="stroke: #A80036; stroke-width: 1.5;" x1="190.5" x2="331.5" y1="443.9531" y2="443.9531"/><line style="stroke: #A80036; stroke-width: 1.5;" x1="190.5" x2="331.5" y1="451.9531" y2="451.9531"/><!--class GalerkinMethod--><rect fill="#FEFECE" filter="url(#f1frte7hr9h0is)" height="48" id="GalerkinMethod" style="stroke: #A80036; stroke-width: 1.5;" width="130" x="368" y="411.9531"/><ellipse cx="383" cy="427.9531" fill="#ADD1B2" rx="11" ry="11" style="stroke: #A80036; stroke-width: 1.0;"/><path d="M385.3438,423.625 L385.5156,423.7031 C385.7344,423.3906 385.9375,423.2969 386.2344,423.2969 C386.5313,423.2969 386.8125,423.4375 386.9688,423.7031 C387.0625,423.8594 387.0781,423.9844 387.0781,424.4219 L387.0781,425.8438 C387.0781,426.2656 387.0469,426.4531 386.9375,426.6094 C386.7656,426.8281 386.5,426.9688 386.2344,426.9688 C386.0156,426.9688 385.7813,426.8594 385.6406,426.7188 C385.5,426.5938 385.4688,426.4688 385.4063,426.0625 C385.3125,425.6563 385.1406,425.4375 384.6563,425.1563 C384.1875,424.9063 383.5781,424.75 383,424.75 C381.2656,424.75 380.0156,426.0625 380.0156,427.8438 L380.0156,428.9375 C380.0156,430.6406 381.3125,431.7344 383.3594,431.7344 C384.125,431.7344 384.8125,431.6094 385.2344,431.3438 C385.4219,431.25 385.4219,431.25 385.875,430.7656 C386.0625,430.5781 386.2656,430.5 386.4844,430.5 C386.9531,430.5 387.3438,430.8906 387.3438,431.3438 C387.3438,431.7344 387.0156,432.1875 386.4375,432.5938 C385.6875,433.1406 384.5313,433.4375 383.3125,433.4375 C380.4219,433.4375 378.3125,431.5469 378.3125,428.9688 L378.3125,427.8438 C378.3125,425.125 380.3125,423.0469 382.9375,423.0469 C383.8125,423.0469 384.4063,423.1875 385.3438,423.625 Z "/><text fill="#000000" font-family="sans-serif" font-size="12" lengthAdjust="spacingAndGlyphs" textLength="98" x="397" y="432.1074">GalerkinMethod</text><line style="stroke: #A80036; stroke-width: 1.5;" x1="369" x2="497" y1="443.9531" y2="443.9531"/><line style="stroke: #A80036; stroke-width: 1.5;" x1="369" x2="497" y1="451.9531" y2="451.9531"/><!--class PetrovGalerkinMethod--><rect fill="#FEFECE" filter="url(#f1frte7hr9h0is)" height="48" id="PetrovGalerkinMethod" style="stroke: #A80036; stroke-width: 1.5;" width="170" x="533" y="411.9531"/><ellipse cx="548" cy="427.9531" fill="#ADD1B2" rx="11" ry="11" style="stroke: #A80036; stroke-width: 1.0;"/><path d="M550.3438,423.625 L550.5156,423.7031 C550.7344,423.3906 550.9375,423.2969 551.2344,423.2969 C551.5313,423.2969 551.8125,423.4375 551.9688,423.7031 C552.0625,423.8594 552.0781,423.9844 552.0781,424.4219 L552.0781,425.8438 C552.0781,426.2656 552.0469,426.4531 551.9375,426.6094 C551.7656,426.8281 551.5,426.9688 551.2344,426.9688 C551.0156,426.9688 550.7813,426.8594 550.6406,426.7188 C550.5,426.5938 550.4688,426.4688 550.4063,426.0625 C550.3125,425.6563 550.1406,425.4375 549.6563,425.1563 C549.1875,424.9063 548.5781,424.75 548,424.75 C546.2656,424.75 545.0156,426.0625 545.0156,427.8438 L545.0156,428.9375 C545.0156,430.6406 546.3125,431.7344 548.3594,431.7344 C549.125,431.7344 549.8125,431.6094 550.2344,431.3438 C550.4219,431.25 550.4219,431.25 550.875,430.7656 C551.0625,430.5781 551.2656,430.5 551.4844,430.5 C551.9531,430.5 552.3438,430.8906 552.3438,431.3438 C552.3438,431.7344 552.0156,432.1875 551.4375,432.5938 C550.6875,433.1406 549.5313,433.4375 548.3125,433.4375 C545.4219,433.4375 543.3125,431.5469 543.3125,428.9688 L543.3125,427.8438 C543.3125,425.125 545.3125,423.0469 547.9375,423.0469 C548.8125,423.0469 549.4063,423.1875 550.3438,423.625 Z "/><text fill="#000000" font-family="sans-serif" font-size="12" lengthAdjust="spacingAndGlyphs" textLength="138" x="562" y="432.1074">PetrovGalerkinMethod</text><line style="stroke: #A80036; stroke-width: 1.5;" x1="534" x2="702" y1="443.9531" y2="443.9531"/><line style="stroke: #A80036; stroke-width: 1.5;" x1="534" x2="702" y1="451.9531" y2="451.9531"/><!--class PDEModel--><rect fill="#FEFECE" filter="url(#f1frte7hr9h0is)" height="176.0469" id="PDEModel" style="stroke: #A80036; stroke-width: 1.5;" width="258" x="738" y="347.9531"/><ellipse cx="831.75" cy="363.9531" fill="#ADD1B2" rx="11" ry="11" style="stroke: #A80036; stroke-width: 1.0;"/><path d="M834.0938,359.625 L834.2656,359.7031 C834.4844,359.3906 834.6875,359.2969 834.9844,359.2969 C835.2813,359.2969 835.5625,359.4375 835.7188,359.7031 C835.8125,359.8594 835.8281,359.9844 835.8281,360.4219 L835.8281,361.8438 C835.8281,362.2656 835.7969,362.4531 835.6875,362.6094 C835.5156,362.8281 835.25,362.9688 834.9844,362.9688 C834.7656,362.9688 834.5313,362.8594 834.3906,362.7188 C834.25,362.5938 834.2188,362.4688 834.1563,362.0625 C834.0625,361.6563 833.8906,361.4375 833.4063,361.1563 C832.9375,360.9063 832.3281,360.75 831.75,360.75 C830.0156,360.75 828.7656,362.0625 828.7656,363.8438 L828.7656,364.9375 C828.7656,366.6406 830.0625,367.7344 832.1094,367.7344 C832.875,367.7344 833.5625,367.6094 833.9844,367.3438 C834.1719,367.25 834.1719,367.25 834.625,366.7656 C834.8125,366.5781 835.0156,366.5 835.2344,366.5 C835.7031,366.5 836.0938,366.8906 836.0938,367.3438 C836.0938,367.7344 835.7656,368.1875 835.1875,368.5938 C834.4375,369.1406 833.2813,369.4375 832.0625,369.4375 C829.1719,369.4375 827.0625,367.5469 827.0625,364.9688 L827.0625,363.8438 C827.0625,361.125 829.0625,359.0469 831.6875,359.0469 C832.5625,359.0469 833.1563,359.1875 834.0938,359.625 Z "/><text fill="#000000" font-family="sans-serif" font-size="12" lengthAdjust="spacingAndGlyphs" textLength="62" x="852.25" y="368.1074">PDEModel</text><line style="stroke: #A80036; stroke-width: 1.5;" x1="739" x2="995" y1="379.9531" y2="379.9531"/><ellipse cx="749" cy="391.8555" fill="none" rx="3" ry="3" style="stroke: #038048; stroke-width: 1.0;"/><text fill="#000000" font-family="sans-serif" font-size="11" font-style="italic" lengthAdjust="spacingAndGlyphs" textLength="54" x="758" y="394.1636">analytical</text><line style="stroke: #A80036; stroke-width: 1.5;" x1="739" x2="995" y1="400.7578" y2="400.7578"/><ellipse cx="749" cy="412.6602" fill="#84BE84" rx="3" ry="3" style="stroke: #038048; stroke-width: 1.0;"/><text fill="#000000" font-family="sans-serif" font-size="11" lengthAdjust="spacingAndGlyphs" textLength="29" x="758" y="414.9683">plot()</text><ellipse cx="749" cy="425.4648" fill="#84BE84" rx="3" ry="3" style="stroke: #038048; stroke-width: 1.0;"/><text fill="#000000" font-family="sans-serif" font-size="11" font-style="italic" lengthAdjust="spacingAndGlyphs" textLength="170" x="758" y="427.7729">stiffness_boundary_operator()</text><ellipse cx="749" cy="438.2695" fill="#84BE84" rx="3" ry="3" style="stroke: #038048; stroke-width: 1.0;"/><text fill="#000000" font-family="sans-serif" font-size="11" font-style="italic" lengthAdjust="spacingAndGlyphs" textLength="158" x="758" y="440.5776">stiffness_domain_operator()</text><ellipse cx="749" cy="451.0742" fill="#84BE84" rx="3" ry="3" style="stroke: #038048; stroke-width: 1.0;"/><text fill="#000000" font-family="sans-serif" font-size="11" font-style="italic" lengthAdjust="spacingAndGlyphs" textLength="189" x="758" y="453.3823">independent_boundary_function()</text><ellipse cx="749" cy="463.8789" fill="#84BE84" rx="3" ry="3" style="stroke: #038048; stroke-width: 1.0;"/><text fill="#000000" font-family="sans-serif" font-size="11" font-style="italic" lengthAdjust="spacingAndGlyphs" textLength="177" x="758" y="466.187">independent_domain_function()</text><ellipse cx="749" cy="476.6836" fill="#84BE84" rx="3" ry="3" style="stroke: #038048; stroke-width: 1.0;"/><text fill="#000000" font-family="sans-serif" font-size="11" font-style="italic" lengthAdjust="spacingAndGlyphs" textLength="209" x="758" y="478.9917">petrov_galerkin_stiffness_boundary()</text><ellipse cx="749" cy="489.4883" fill="#84BE84" rx="3" ry="3" style="stroke: #038048; stroke-width: 1.0;"/><text fill="#000000" font-family="sans-serif" font-size="11" font-style="italic" lengthAdjust="spacingAndGlyphs" textLength="197" x="758" y="491.7964">petrov_galerkin_stiffness_domain()</text><ellipse cx="749" cy="502.293" fill="#84BE84" rx="3" ry="3" style="stroke: #038048; stroke-width: 1.0;"/><text fill="#000000" font-family="sans-serif" font-size="11" font-style="italic" lengthAdjust="spacingAndGlyphs" textLength="232" x="758" y="504.6011">petrov_galerkin_independent_boundary()</text><ellipse cx="749" cy="515.0977" fill="#84BE84" rx="3" ry="3" style="stroke: #038048; stroke-width: 1.0;"/><text fill="#000000" font-family="sans-serif" font-size="11" font-style="italic" lengthAdjust="spacingAndGlyphs" textLength="220" x="758" y="517.4058">petrov_galerkin_independent_domain()</text><!--class PotentialModel--><rect fill="#FEFECE" filter="url(#f1frte7hr9h0is)" height="48" id="PotentialModel" style="stroke: #A80036; stroke-width: 1.5;" width="125" x="728.5" y="641.4531"/><ellipse cx="743.5" cy="657.4531" fill="#ADD1B2" rx="11" ry="11" style="stroke: #A80036; stroke-width: 1.0;"/><path d="M745.8438,653.125 L746.0156,653.2031 C746.2344,652.8906 746.4375,652.7969 746.7344,652.7969 C747.0313,652.7969 747.3125,652.9375 747.4688,653.2031 C747.5625,653.3594 747.5781,653.4844 747.5781,653.9219 L747.5781,655.3438 C747.5781,655.7656 747.5469,655.9531 747.4375,656.1094 C747.2656,656.3281 747,656.4688 746.7344,656.4688 C746.5156,656.4688 746.2813,656.3594 746.1406,656.2188 C746,656.0938 745.9688,655.9688 745.9063,655.5625 C745.8125,655.1563 745.6406,654.9375 745.1563,654.6563 C744.6875,654.4063 744.0781,654.25 743.5,654.25 C741.7656,654.25 740.5156,655.5625 740.5156,657.3438 L740.5156,658.4375 C740.5156,660.1406 741.8125,661.2344 743.8594,661.2344 C744.625,661.2344 745.3125,661.1094 745.7344,660.8438 C745.9219,660.75 745.9219,660.75 746.375,660.2656 C746.5625,660.0781 746.7656,660 746.9844,660 C747.4531,660 747.8438,660.3906 747.8438,660.8438 C747.8438,661.2344 747.5156,661.6875 746.9375,662.0938 C746.1875,662.6406 745.0313,662.9375 743.8125,662.9375 C740.9219,662.9375 738.8125,661.0469 738.8125,658.4688 L738.8125,657.3438 C738.8125,654.625 740.8125,652.5469 743.4375,652.5469 C744.3125,652.5469 744.9063,652.6875 745.8438,653.125 Z "/><text fill="#000000" font-family="sans-serif" font-size="12" lengthAdjust="spacingAndGlyphs" textLength="93" x="757.5" y="661.6074">PotentialModel</text><line style="stroke: #A80036; stroke-width: 1.5;" x1="729.5" x2="852.5" y1="673.4531" y2="673.4531"/><line style="stroke: #A80036; stroke-width: 1.5;" x1="729.5" x2="852.5" y1="681.4531" y2="681.4531"/><!--class ElasticModel--><rect fill="#FEFECE" filter="url(#f1frte7hr9h0is)" height="48" id="ElasticModel" style="stroke: #A80036; stroke-width: 1.5;" width="110" x="889" y="641.4531"/><ellipse cx="904" cy="657.4531" fill="#ADD1B2" rx="11" ry="11" style="stroke: #A80036; stroke-width: 1.0;"/><path d="M906.3438,653.125 L906.5156,653.2031 C906.7344,652.8906 906.9375,652.7969 907.2344,652.7969 C907.5313,652.7969 907.8125,652.9375 907.9688,653.2031 C908.0625,653.3594 908.0781,653.4844 908.0781,653.9219 L908.0781,655.3438 C908.0781,655.7656 908.0469,655.9531 907.9375,656.1094 C907.7656,656.3281 907.5,656.4688 907.2344,656.4688 C907.0156,656.4688 906.7813,656.3594 906.6406,656.2188 C906.5,656.0938 906.4688,655.9688 906.4063,655.5625 C906.3125,655.1563 906.1406,654.9375 905.6563,654.6563 C905.1875,654.4063 904.5781,654.25 904,654.25 C902.2656,654.25 901.0156,655.5625 901.0156,657.3438 L901.0156,658.4375 C901.0156,660.1406 902.3125,661.2344 904.3594,661.2344 C905.125,661.2344 905.8125,661.1094 906.2344,660.8438 C906.4219,660.75 906.4219,660.75 906.875,660.2656 C907.0625,660.0781 907.2656,660 907.4844,660 C907.9531,660 908.3438,660.3906 908.3438,660.8438 C908.3438,661.2344 908.0156,661.6875 907.4375,662.0938 C906.6875,662.6406 905.5313,662.9375 904.3125,662.9375 C901.4219,662.9375 899.3125,661.0469 899.3125,658.4688 L899.3125,657.3438 C899.3125,654.625 901.3125,652.5469 903.9375,652.5469 C904.8125,652.5469 905.4063,652.6875 906.3438,653.125 Z "/><text fill="#000000" font-family="sans-serif" font-size="12" lengthAdjust="spacingAndGlyphs" textLength="78" x="918" y="661.6074">ElasticModel</text><line style="stroke: #A80036; stroke-width: 1.5;" x1="890" x2="998" y1="673.4531" y2="673.4531"/><line style="stroke: #A80036; stroke-width: 1.5;" x1="890" x2="998" y1="681.4531" y2="681.4531"/><!--class ViscoelasticModel--><rect fill="#FEFECE" filter="url(#f1frte7hr9h0is)" height="48" id="ViscoelasticModel" style="stroke: #A80036; stroke-width: 1.5;" width="143" x="1034.5" y="641.4531"/><ellipse cx="1049.5" cy="657.4531" fill="#ADD1B2" rx="11" ry="11" style="stroke: #A80036; stroke-width: 1.0;"/><path d="M1051.8438,653.125 L1052.0156,653.2031 C1052.2344,652.8906 1052.4375,652.7969 1052.7344,652.7969 C1053.0313,652.7969 1053.3125,652.9375 1053.4688,653.2031 C1053.5625,653.3594 1053.5781,653.4844 1053.5781,653.9219 L1053.5781,655.3438 C1053.5781,655.7656 1053.5469,655.9531 1053.4375,656.1094 C1053.2656,656.3281 1053,656.4688 1052.7344,656.4688 C1052.5156,656.4688 1052.2813,656.3594 1052.1406,656.2188 C1052,656.0938 1051.9688,655.9688 1051.9063,655.5625 C1051.8125,655.1563 1051.6406,654.9375 1051.1563,654.6563 C1050.6875,654.4063 1050.0781,654.25 1049.5,654.25 C1047.7656,654.25 1046.5156,655.5625 1046.5156,657.3438 L1046.5156,658.4375 C1046.5156,660.1406 1047.8125,661.2344 1049.8594,661.2344 C1050.625,661.2344 1051.3125,661.1094 1051.7344,660.8438 C1051.9219,660.75 1051.9219,660.75 1052.375,660.2656 C1052.5625,660.0781 1052.7656,660 1052.9844,660 C1053.4531,660 1053.8438,660.3906 1053.8438,660.8438 C1053.8438,661.2344 1053.5156,661.6875 1052.9375,662.0938 C1052.1875,662.6406 1051.0313,662.9375 1049.8125,662.9375 C1046.9219,662.9375 1044.8125,661.0469 1044.8125,658.4688 L1044.8125,657.3438 C1044.8125,654.625 1046.8125,652.5469 1049.4375,652.5469 C1050.3125,652.5469 1050.9063,652.6875 1051.8438,653.125 Z "/><text fill="#000000" font-family="sans-serif" font-size="12" lengthAdjust="spacingAndGlyphs" textLength="111" x="1063.5" y="661.6074">ViscoelasticModel</text><line style="stroke: #A80036; stroke-width: 1.5;" x1="1035.5" x2="1176.5" y1="673.4531" y2="673.4531"/><line style="stroke: #A80036; stroke-width: 1.5;" x1="1035.5" x2="1176.5" y1="681.4531" y2="681.4531"/><!--link PolygonRegion to RectangularRegion--><path d="M435.118,765.0884 C426.916,780.6835 419.163,795.4213 413.128,806.8959 " fill="none" id="PolygonRegion-RectangularRegion" style="stroke: #A80036; stroke-width: 1.0;"/><polygon fill="none" points="428.998,761.6872,444.504,747.2451,441.389,768.2045,428.998,761.6872" style="stroke: #A80036; stroke-width: 1.0;"/><!--link PolygonRegion to CircularRegion--><path d="M538.882,765.0884 C547.084,780.6835 554.837,795.4213 560.872,806.8959 " fill="none" id="PolygonRegion-CircularRegion" style="stroke: #A80036; stroke-width: 1.0;"/><polygon fill="none" points="532.611,768.2045,529.496,747.2451,545.002,761.6872,532.611,768.2045" style="stroke: #A80036; stroke-width: 1.0;"/><!--link MeshlessMethod to CollocationMethod--><path d="M260.685,297.0201 C230.185,312.1841 199.436,329.3201 172,347.9531 C144.903,366.3551 118.183,392.8081 100.5801,411.7061 " fill="none" id="MeshlessMethod-CollocationMethod" style="stroke: #A80036; stroke-width: 1.0;"/><polygon fill="none" points="258.048,290.5191,279.097,288.0811,264.162,303.1131,258.048,290.5191" style="stroke: #A80036; stroke-width: 1.0;"/><!--link MeshlessMethod to SubregionMethod--><path d="M369.296,303.6761 C337.619,342.0751 301.607,385.7291 280.124,411.7701 " fill="none" id="MeshlessMethod-SubregionMethod" style="stroke: #A80036; stroke-width: 1.0;"/><polygon fill="none" points="363.966,299.1371,382.092,288.1641,374.765,308.0461,363.966,299.1371" style="stroke: #A80036; stroke-width: 1.0;"/><!--link MeshlessMethod to GalerkinMethod--><path d="M433,308.3081 C433,345.5391 433,386.7701 433,411.7701 " fill="none" id="MeshlessMethod-GalerkinMethod" style="stroke: #A80036; stroke-width: 1.0;"/><polygon fill="none" points="426,308.1641,433,288.1641,440,308.1641,426,308.1641" style="stroke: #A80036; stroke-width: 1.0;"/><!--link MeshlessMethod to PetrovGalerkinMethod--><path d="M501.065,303.1641 C535.246,341.6871 574.221,385.6131 597.43,411.7701 " fill="none" id="MeshlessMethod-PetrovGalerkinMethod" style="stroke: #A80036; stroke-width: 1.0;"/><polygon fill="none" points="495.793,307.7701,487.755,288.1641,506.265,298.4781,495.793,307.7701" style="stroke: #A80036; stroke-width: 1.0;"/><!--link PDEModel to PotentialModel--><path d="M831.485,543.2661 C819.231,579.9461 806.631,617.6621 798.812,641.0701 " fill="none" id="PDEModel-PotentialModel" style="stroke: #A80036; stroke-width: 1.0;"/><polygon fill="none" points="824.857,541.0111,837.834,524.2601,838.136,545.4471,824.857,541.0111" style="stroke: #A80036; stroke-width: 1.0;"/><!--link PDEModel to ElasticModel--><path d="M902.983,543.2661 C915.398,579.9461 928.163,617.6621 936.086,641.0701 " fill="none" id="PDEModel-ElasticModel" style="stroke: #A80036; stroke-width: 1.0;"/><polygon fill="none" points="896.331,545.4481,896.55,524.2601,909.593,540.9601,896.331,545.4481" style="stroke: #A80036; stroke-width: 1.0;"/><!--link PDEModel to ViscoelasticModel--><path d="M973.436,538.2681 C1013.72,576.6131 1056.01,616.8651 1081.69,641.3151 " fill="none" id="PDEModel-ViscoelasticModel" style="stroke: #A80036; stroke-width: 1.0;"/><polygon fill="none" points="968.38,543.1191,958.72,524.2601,978.033,532.9791,968.38,543.1191" style="stroke: #A80036; stroke-width: 1.0;"/><!--link TestMeshless to MeshlessMethod--><path d="M433,90.1931 C433,109.2751 433,137.2041 433,162.6531 " fill="none" id="TestMeshless-MeshlessMethod" style="stroke: #A80036; stroke-width: 1.0;"/><!--link MeshlessMethod to PDEModel--><path d="M588.892,287.9761 C631.904,306.1551 678.218,326.8641 720,347.9531 C725.824,350.8931 731.733,353.9701 737.669,357.1391 " fill="none" id="MeshlessMethod-PDEModel" style="stroke: #A80036; stroke-width: 1.0;"/><!--link PDEModel to PolygonRegion--><path d="M737.819,514.2921 C700.381,536.7051 659.421,561.2271 621.657,583.8361 " fill="none" id="PDEModel-PolygonRegion" style="stroke: #A80036; stroke-width: 1.0;"/><!--
@startuml
title Meshless - sympy

enum BoundaryCondition{
    DIRICHLET,
    NEUMANN
}

class PolygonRegion {
  +all_points: ndarray<N, 2>
  +boundary_points: ndarray<N, 2>
  +domain_points: ndarray<N, 2>
  +boundary_condition(point: ndarray<2>): array<BoundaryCondition>
  +distance_from_boundary(point: ndarray<2>): float
  +normal(point: ndarray<2>): ndarray<2>
  +include(point: ndarray<2>): bool
  #load(path: str)
  + plot()
}
class RectangularRegion
class CircularRegion

PolygonRegion <|-down- RectangularRegion
PolygonRegion <|-down- CircularRegion

class TestMeshless

class MeshlessMethod {
    - domain_append(index: int, point: ndarray<2>): ndarray<D, N, T>, ndarray<D, 1, T>
    - boundary_append()
    + stiffness_matrix: ndarray<T, N, N>
    + independent_vector: ndarray<T, N, 1>
    + solve()
    + plot()
    
}
class CollocationMethod
class SubregionMethod
class GalerkinMethod
class PetrovGalerkinMethod

MeshlessMethod <|-down- CollocationMethod
MeshlessMethod <|-down- SubregionMethod
MeshlessMethod <|-down- GalerkinMethod
MeshlessMethod <|-down- PetrovGalerkinMethod

class PDEModel {
    + plot()
    + {abstract} analytical
    + {abstract} stiffness_boundary_operator()
    + {abstract} stiffness_domain_operator()
    + {abstract} independent_boundary_function()
    + {abstract} independent_domain_function()
    + {abstract} petrov_galerkin_stiffness_boundary()
    + {abstract} petrov_galerkin_stiffness_domain()
    + {abstract} petrov_galerkin_independent_boundary()
    + {abstract} petrov_galerkin_independent_domain() 
}
class PotentialModel
class ElasticModel
class ViscoelasticModel

PDEModel <|-down- PotentialModel
PDEModel <|-down- ElasticModel
PDEModel <|-down- ViscoelasticModel

TestMeshless - - MeshlessMethod
MeshlessMethod - - PDEModel
PDEModel - - PolygonRegion
@enduml

PlantUML version 1.2019.02(Fri Mar 01 21:20:40 UTC 2019)
(GPL source distribution)
Java Runtime: Java(TM) SE Runtime Environment
JVM: Java HotSpot(TM) 64-Bit Server VM
Java Version: 1.7.0_25-b15
Operating System: Linux
Default Encoding: UTF-8
Language: en
Country: US
--></g></svg>